<svg width="16" height="17" viewBox="0 0 16 17" fill="none" xmlns="http://www.w3.org/2000/svg">
<path d="M0.549544 11.5682C0.512427 11.4674 0.641337 11.3888 0.713973 11.4686C1.60517 12.4503 4.4372 15.1496 8.18436 14.5565C9.9001 14.2852 11.4969 13.4474 12.4731 11.9871C12.9991 11.2005 13.3827 10.3083 13.2857 9.34955C13.2258 8.7585 13.0474 8.17874 12.7613 7.65704C12.2416 6.70878 11.2962 5.85526 10.2693 5.48354C10.2693 5.48354 8.98576 5.01908 8.55234 5.91493C8.11891 6.81078 8.91911 7.39094 9.2356 7.49053C9.501 7.57398 10.1184 7.50585 10.4481 7.02204C10.5095 6.93213 10.6512 6.96882 10.6592 7.07727C10.7031 7.65462 10.6197 8.76011 9.51856 9.51404C7.96845 10.5756 6.58516 9.82932 6.20163 9.5971C4.90016 8.8089 4.45915 6.91238 5.44812 5.71778C5.48364 5.67464 5.43894 5.61255 5.38666 5.63231C4.96162 5.79277 3.9463 6.2798 3.26783 7.45545C3.21355 7.54939 3.07027 7.51834 3.0583 7.41029C2.98327 6.72531 3.05391 5.08803 5.03425 3.62572C7.61485 1.72033 11.1102 3.07539 11.1182 3.07822C11.1257 3.08063 13.937 3.94463 15.3187 6.97608C16.702 10.0116 14.4351 13.1132 13.4186 14.0917C12.4017 15.0702 10.2685 16.8949 6.78471 16.397C3.57953 15.9398 1.20607 13.3599 0.549544 11.5682Z" fill="#D7D7D7"/>
<path d="M12.5484 8.8857C12.5999 8.80547 12.7233 8.83289 12.7352 8.92723C12.8426 9.77066 12.8617 12.3324 9.43665 13.5282C6.37075 14.5986 2.18776 13.2226 0.749794 10.2029C0.343508 9.34975 0.149545 8.40351 0.135576 7.4621C0.114424 6.01028 0.506741 4.75964 1.36521 3.5977C2.26079 2.38617 3.47406 1.43348 4.8362 0.789613C7.35613 -0.401356 10.7429 0.116719 12.8761 1.87011C13.7865 2.6184 14.5715 3.63117 15.0384 4.70925C15.0831 4.81246 14.9534 4.90196 14.8732 4.82294C14.0032 3.9658 11.5846 1.88422 8.61969 1.88422C4.88609 1.88422 3.16915 4.63748 3.16915 4.63748C3.16915 4.63748 1.13573 7.62297 3.93583 10.0944C6.64932 12.4888 11.0203 11.2717 12.5484 8.8857Z" fill="#D7D7D7"/>
</svg>
