<svg width="180" height="180" viewBox="0 0 180 180" fill="none" xmlns="http://www.w3.org/2000/svg">
<circle cx="90" cy="90" r="90" fill="url(#paint0_linear_69_114)" fill-opacity="0.6"/>
<circle cx="90" cy="90" r="89.5" stroke="url(#paint1_linear_69_114)" stroke-opacity="0.2"/>
<path d="M91.0244 84.165L95.8363 65.9575L92.6944 62.8139L89.6907 69.5264L89.634 59.7518L85.4162 55.532L83.2472 59.0709L82.8304 52.945L75.889 46L71.083 64.1853L59.0908 52.1703L53.4616 57.8025L65.5474 69.911L47.0611 74.8015L50.0591 77.8009L59.1865 77.6217L52.5281 80.2713L59.5824 87.329L65.4771 87.6957L63.1718 89.2906L66.8776 89.521L63.86 91.6087L67.0085 94.7588L85.4729 89.874L128.518 133H133V126.221L91.0244 84.165ZM104.788 80.0555L110.497 80.4443L107.199 82.4669L112.712 87.9827L123.347 85.1694L133 94.8271V84.7104L128.178 79.8867L130.83 69.8545L118.312 57.3304L115.66 67.362L108.815 60.5138L103.811 65.6247L110.829 72.6455L100.194 75.4586L104.788 80.0555ZM73.9505 125.949L77.6369 112.001L75.1492 109.513L72.9796 113.053L72.5622 106.924L65.1184 99.4772L62.4704 109.497L55.6504 102.65L50.5426 107.761L57.584 114.805L47 117.606L56.6668 127.277H62.7705L59.8162 130.051L70.1022 127.33L75.7697 133H85.8814L74.9798 122.055L73.9505 125.949Z" fill="#826F4E"/>
<defs>
<linearGradient id="paint0_linear_69_114" x1="46.5" y1="180" x2="46.5" y2="0" gradientUnits="userSpaceOnUse">
<stop stop-color="#483E2F"/>
<stop offset="1"/>
</linearGradient>
<linearGradient id="paint1_linear_69_114" x1="90" y1="0" x2="90" y2="180" gradientUnits="userSpaceOnUse">
<stop stop-color="white"/>
<stop offset="1" stop-color="white" stop-opacity="0"/>
</linearGradient>
</defs>
</svg>
