<svg width="180" height="180" viewBox="0 0 180 180" fill="none" xmlns="http://www.w3.org/2000/svg">
<circle cx="90" cy="90" r="90" fill="url(#paint0_linear_69_98)" fill-opacity="0.6"/>
<circle cx="90" cy="90" r="89.5" stroke="url(#paint1_linear_69_98)" stroke-opacity="0.2"/>
<path d="M90.3455 74.3191C96.2029 74.3191 104.99 71.3901 104.99 65.533C104.99 59.676 102.06 50.8889 90.3455 39.1738C78.6306 50.8891 75.7013 59.675 75.7013 65.533C75.7013 71.3911 84.4891 74.3191 90.3455 74.3191ZM105.564 100.677C102.635 105.75 100.779 114.823 105.851 117.752C110.924 120.682 119.997 122.539 136.001 118.251C131.712 102.247 125.568 95.3186 120.495 92.3894C115.422 89.4603 108.494 95.6043 105.564 100.677L105.564 100.677ZM75.1278 100.677C72.1986 95.6043 65.2699 89.4604 60.1969 92.3882C55.124 95.3172 48.9798 102.246 44.6914 118.249C60.6947 122.537 69.7683 120.681 74.8411 117.751C79.9139 114.822 78.056 105.75 75.1279 100.677L75.1278 100.677ZM90.3455 109.463C87.4163 109.463 84.4881 112.392 84.4881 115.321C84.4881 118.25 84.4881 121.179 90.3456 127.037C96.203 121.179 96.203 118.25 96.203 115.321C96.204 112.392 93.2747 109.463 90.3455 109.463ZM105.564 83.1052C107.028 85.6417 111.029 86.7139 113.565 85.2491C116.102 83.7843 118.638 82.3201 120.782 74.3191C112.781 72.1753 110.244 73.6396 107.708 75.1042C105.171 76.5676 104.1 80.5687 105.564 83.1052ZM75.1278 83.1052C76.592 80.5687 75.5206 76.5676 72.9842 75.1042C70.4477 73.6396 67.9113 72.1752 59.9102 74.3191C62.0539 82.3201 64.5903 83.7847 67.1268 85.2492C69.6621 86.7138 73.6638 85.6417 75.1278 83.1053V83.1052ZM102.062 91.8906C102.062 98.3615 96.8157 103.605 90.3471 103.605C83.8762 103.605 78.6328 98.3591 78.6328 91.8906C78.6328 85.4195 83.8787 80.1761 90.3471 80.1761C96.8156 80.1761 102.062 85.422 102.062 91.8907L102.062 91.8906Z" fill="#826F4E"/>
<defs>
<linearGradient id="paint0_linear_69_98" x1="46.5" y1="180" x2="46.5" y2="0" gradientUnits="userSpaceOnUse">
<stop stop-color="#483E2F"/>
<stop offset="1"/>
</linearGradient>
<linearGradient id="paint1_linear_69_98" x1="90" y1="0" x2="90" y2="180" gradientUnits="userSpaceOnUse">
<stop stop-color="white"/>
<stop offset="1" stop-color="white" stop-opacity="0"/>
</linearGradient>
</defs>
</svg>
